<svg xmlns="http://www.w3.org/2000/svg" xmlns:xlink="http://www.w3.org/1999/xlink" width="7.903in" height="93.696" version="1.1" viewBox="0 0 7903 976" xml:space="preserve" style="shape-rendering:geometricPrecision;text-rendering:geometricPrecision;image-rendering:optimizeQuality;fill-rule:evenodd;clip-rule:evenodd"><defs><style type="text/css">.fil0{fill:#000}</style></defs><g id="Layer_x0020_1"><metadata id="CorelCorpID_0Corel-Layer"/><g id="_588376680"><path d="M709 741c54,-14 101,-47 101,-125 0,-137 -154,-136 -230,-136l-132 0 0 4c37,4 59,34 59,65l0 417 73 0 0 -218c16,0 34,0 54,-1l155 219 82 0 -162 -225zm-15 -34c-11,7 -23,11 -36,13 -9,1 -17,2 -26,2l-52 0 0 -218 52 0c15,0 96,7 100,112 0,12 -1,24 -3,34 -2,9 -5,17 -9,25 -2,7 -7,14 -12,19 -4,5 -9,9 -14,13z" class="fil0"/><path d="M1486 941l0 -213 194 0 0 -30 -194 0 0 -192 232 0 0 -26 -364 0 0 4c40,11 59,36 59,64l0 418 305 0 0 -25 -232 0z" class="fil0"/><path d="M1271 480l0 329c0,122 -114,138 -153,138 0,0 -123,8 -123,-138l0 -329 -132 0 0 4c40,11 59,36 59,64l0 261c0,176 190,167 190,167 183,0 189,-137 189,-167l0 -329 -30 0z" class="fil0"/><polygon points="395 480 0 480 0 510 161 510 161 966 234 966 234 510 395 510" class="fil0"/><path d="M2124 480l-214 0 0 4c38,4 59,34 59,64l0 418 155 0c6,0 268,11 268,-243 0,-258 -262,-242 -268,-243zm0 461l-82 0 0 -437 82 0c32,0 186,0 187,219 1,217 -162,218 -187,218z" class="fil0"/><path d="M2445 480l0 4c41,11 59,36 59,64l0 418 66 0 0 -486 -125 0z" class="fil0"/><path d="M2656 966l41 -92 245 0 41 92 81 0 -223 -486 -218 486 33 0zm162 -361l112 244 -222 0 110 -244z" class="fil0"/><path d="M3575 480l-204 377 -122 -231c-25,-47 -57,-132 -151,-135l0 3c74,18 57,129 53,171l-34 301 30 0 35 -311 165 311 181 -333 57 333 71 0 3 -1 -84 -485z" class="fil0"/><path d="M4708 480l0 486 -353 -347 0 347 -30 0 0 -374c0,-38 -6,-93 -58,-108l0 -4c48,0 80,28 97,42l314 305 0 -347 30 0z" class="fil0"/><path d="M4975 480l-214 0 0 4c37,4 59,34 59,64l0 418 155 0c6,0 268,11 268,-243 0,-258 -262,-242 -268,-243zm0 461l-82 0 0 -437 82 0c31,0 186,0 187,219 1,217 -162,218 -187,218z" class="fil0"/><path d="M7903 842c0,50 -37,134 -152,134 -91,0 -149,-39 -163,-139l22 0c14,91 90,111 134,111 77,0 96,-54 96,-78 0,-51 -42,-79 -122,-120 -50,-26 -135,-69 -135,-151 0,-106 104,-127 141,-127 93,0 131,49 144,119l-24 0c-10,-37 -36,-92 -120,-92 -41,0 -84,33 -84,75 0,49 59,80 120,111 115,58 143,99 143,157z" class="fil0"/><path d="M7327 936l0 -456 -125 0 0 4c40,11 58,36 58,64l0 418 312 0 0 -30 -245 0z" class="fil0"/><path d="M6909 941l0 -213 195 0 0 -30 -195 0 0 -192 233 0 0 -26 -365 0 0 4c41,11 59,36 59,64l0 418 306 0 0 -25 -233 0z" class="fil0"/><path d="M6692 480l-129 346 -120 -346 -120 351 -113 -310 0 -1c-9,-24 -31,-40 -57,-40l-65 0 0 4 16 4c8,2 16,6 22,12 6,6 11,12 14,20l0 1 165 455 116 -338 117 338 186 -496 -32 0z" class="fil0"/><path d="M5803 941l0 -213 194 0 0 -30 -194 0 0 -192 232 0 0 -26 -364 0 0 4c40,11 59,36 59,64l0 418 305 0 0 -25 -232 0z" class="fil0"/><path d="M5618 480l-125 0 0 4c40,11 58,36 58,64l0 348c0,0 2,50 -41,50 -42,0 -53,-27 -53,-27l-24 18c0,0 28,37 75,37 71,0 110,-28 110,-78l0 -416z" class="fil0"/><path d="M3988 918l245 -274 -153 41 -92 233zm-277 -278c0,-10 8,-17 18,-17 -10,0 -18,-8 -18,-18 0,10 -7,18 -17,18 10,0 17,7 17,17zm167 -81c0,-12 10,-22 22,-22 -12,0 -22,-10 -22,-23 0,13 -10,23 -23,23 13,0 23,10 23,22zm-161 14c0,-16 13,-30 29,-30 -16,0 -29,-13 -29,-29 0,16 -13,29 -29,29 16,0 29,14 29,30zm83 76c0,-30 25,-54 54,-54 -29,0 -54,-25 -54,-55 0,30 -24,55 -54,55 30,0 54,24 54,54zm45 11l199 0 -96 -137 -103 137zm223 -11l74 -135 -168 0 94 135zm28 4l148 -40 -78 -89 -70 129zm-430 -6l239 267 -96 -229 -143 -38zm384 40l-212 0 110 259 102 -259z" class="fil0"/><path d="M15 131c1122,-9 1884,-16 2441,-21l0 43c-557,-5 -1319,-13 -2441,-22zm5432 -21c557,5 1319,12 2442,21l0 0c-1123,9 -1885,17 -2442,22l0 -43z" class="fil0"/><path d="M2750 116c43,5 64,23 64,55 0,21 -9,39 -27,53 -18,14 -42,21 -72,21l-45 0 -56 0 0 -2c16,-6 24,-13 24,-23l0 -180c0,-9 -8,-14 -24,-16l0 -2 89 0c60,0 90,15 90,44 0,12 -4,22 -13,31 -9,9 -19,16 -30,19zm-46 -89l-34 0 0 88 60 0c10,0 17,-3 23,-7 6,-5 8,-14 8,-28 0,-16 -4,-29 -13,-38 -9,-10 -24,-15 -44,-15zm19 212c21,0 37,-4 45,-12 9,-8 14,-23 14,-45 0,-8 -1,-16 -2,-22 -2,-7 -5,-13 -9,-19 -5,-7 -11,-12 -21,-15 -10,-4 -21,-6 -36,-6l-44 0 0 112c18,5 35,7 53,7zm216 -150c6,0 12,1 17,4l-27 44 -1 0c3,-10 4,-18 2,-23 -2,-5 -6,-7 -12,-7 -7,0 -14,4 -19,12 -5,8 -9,18 -10,30l0 66c0,9 1,15 2,19 2,4 5,7 10,11l-43 0 1 -22 0 -122c-4,-3 -11,-5 -19,-6l0 -1 50 -5 -1 23 0 11 4 0c3,-10 9,-19 18,-25 8,-6 18,-9 28,-9zm67 -33c-5,0 -9,-2 -13,-5 -3,-4 -5,-8 -5,-14 0,-5 2,-9 5,-12 4,-4 8,-6 13,-6 5,0 10,2 13,6 4,3 5,7 5,12 0,6 -1,10 -5,14 -3,3 -8,5 -13,5zm-14 189l2 -22 0 -122c-5,-3 -12,-5 -20,-6l0 -1 50 -5 -1 23 0 103c0,9 1,15 2,19 2,4 5,7 10,11l-43 0zm115 -31c0,9 1,16 4,20 2,5 7,8 14,9l0 2 -50 0 3 -20 0 -190c0,-6 -2,-9 -6,-9 -3,-1 -10,1 -20,4l0 -2 57 -27 -2 13 0 200zm90 0c0,9 1,16 3,20 3,5 8,8 15,9l0 2 -50 0 3 -20 0 -190c0,-6 -2,-9 -6,-9 -4,-1 -10,1 -20,4l0 -2 56 -27 -1 13 0 200zm68 -158c-5,0 -9,-2 -13,-5 -3,-4 -5,-8 -5,-14 0,-5 2,-9 5,-12 4,-4 8,-6 13,-6 5,0 10,2 13,6 4,3 5,7 5,12 0,6 -1,10 -5,14 -3,3 -8,5 -13,5zm-14 189l2 -22 0 -122c-5,-3 -12,-5 -20,-6l0 -1 50 -5 -1 23 0 103c0,9 1,15 2,19 2,4 5,7 10,11l-43 0zm224 -26c0,8 1,14 3,18 1,4 5,7 10,10l0 2 -50 -10c0,0 0,-1 0,-1 -11,6 -23,9 -38,9 -22,0 -41,-7 -55,-20 -14,-13 -21,-31 -21,-53 0,-25 8,-45 25,-61 17,-16 42,-24 73,-24 20,0 37,3 53,11l0 119zm-120 -62c0,22 6,42 18,57 12,16 28,24 46,24 10,0 19,-4 26,-11 1,-4 1,-9 1,-13l0 -102c-11,-12 -24,-17 -40,-17 -16,0 -28,5 -38,16 -9,12 -13,27 -13,46zm292 88l1 -22 0 -76c0,-30 -11,-45 -34,-45 -3,0 -6,1 -10,1 -3,1 -6,2 -9,3 -2,0 -5,2 -9,4 -3,2 -6,3 -7,4 -2,1 -5,3 -9,6 -4,3 -7,5 -8,5l0 90c0,9 1,15 3,19 2,4 5,7 10,11l-44 0 2 -22 0 -122c-5,-3 -11,-5 -19,-6l0 -1 50 -5 -2 23 0 6c1,0 3,-1 7,-4 4,-3 6,-4 8,-5 1,-1 3,-3 7,-5 4,-2 7,-4 9,-5 2,-1 5,-2 9,-4 4,-1 7,-3 10,-3 3,-1 6,-2 10,-2 3,-1 7,-1 10,-1 13,0 24,4 32,12 9,9 14,24 14,45l0 69c0,9 0,15 2,19 2,4 5,7 10,11l-43 0zm107 5l-23 -8 1 -19 0 -152c0,-6 -2,-9 -6,-10 -3,0 -10,1 -21,4l0 -2 59 -27 -3 14 0 41 39 0 -2 7 -37 0 0 141 39 -1 0 1 -39 11 -7 0zm114 -36c0,9 1,16 4,20 2,5 7,8 14,9l0 2 -50 0 3 -20 0 -190c0,-6 -2,-9 -6,-9 -3,-1 -10,1 -20,4l0 -2 57 -27 -2 13 0 200zm153 -123l49 0 0 1c-6,2 -11,5 -15,10 -4,5 -9,14 -15,27l-56 133c-2,6 -5,11 -6,14 -1,3 -4,7 -7,12 -3,5 -6,8 -9,11 -3,2 -8,4 -13,6 -5,2 -10,3 -17,3l-12 -14c29,0 49,-11 58,-34l5 -11 -62 -137 -12 -21 65 0 0 1c-20,2 -26,15 -16,37l39 87 37 -87c3,-7 5,-13 5,-17 0,-5 -1,-8 -3,-11 -2,-2 -4,-4 -7,-6 -2,-1 -5,-2 -8,-3l0 -1zm339 118c-8,12 -19,22 -33,29 -14,7 -31,11 -50,11 -34,0 -63,-11 -87,-32 -23,-22 -35,-50 -35,-84 0,-17 3,-34 11,-49 7,-14 16,-27 29,-36 12,-10 25,-17 41,-22 15,-6 31,-8 48,-8 35,0 62,11 80,33l-40 56 -1 0c9,-22 8,-41 -3,-58 -11,-16 -28,-25 -52,-25 -22,0 -41,8 -55,24 -15,16 -23,38 -23,67 0,33 10,61 30,84 20,24 44,35 72,35 13,0 25,-2 37,-7 12,-5 22,-11 28,-19l3 1zm123 -120c6,0 12,1 17,4l-27 44 -1 0c3,-10 4,-18 2,-23 -2,-5 -6,-7 -12,-7 -7,0 -14,4 -19,12 -5,8 -8,18 -10,30l0 66c0,9 1,15 3,19 1,4 4,7 9,11l-43 0 2 -22 0 -122c-5,-3 -12,-5 -20,-6l0 -1 51 -5 -2 23 0 11 4 0c4,-10 10,-19 18,-25 8,-6 18,-9 28,-9zm184 130c0,8 1,14 2,18 2,4 5,7 10,10l0 2 -50 -10c1,0 1,-1 1,-1 -11,6 -24,9 -38,9 -23,0 -41,-7 -55,-20 -15,-13 -22,-31 -22,-53 0,-25 9,-45 26,-61 17,-16 41,-24 73,-24 19,0 37,3 53,11l0 119zm-121 -62c0,22 6,42 19,57 12,16 27,24 45,24 11,0 20,-4 27,-11 0,-4 0,-9 0,-13l0 -102c-11,-12 -24,-17 -39,-17 -16,0 -29,5 -38,16 -9,12 -14,27 -14,46zm275 -157c16,0 34,5 55,15l-26 23c-7,-8 -15,-14 -25,-19 -10,-6 -20,-8 -29,-8 -24,0 -36,20 -36,62l0 18 52 0 -2 7 -50 0 0 116c0,9 2,16 4,20 3,5 9,8 18,9l0 2 -56 0 5 -20 0 -113c0,-3 -1,-5 -1,-7 -1,-2 -2,-3 -3,-4 -1,-1 -2,-2 -5,-2 -3,-1 -5,-1 -7,-1 -1,0 -4,0 -8,0l1 -7 23 0 0 -8c0,-25 9,-45 27,-60 18,-15 39,-23 63,-23zm57 250l-24 -8 1 -19 0 -152c0,-6 -1,-9 -5,-10 -4,0 -11,1 -21,4l0 -2 58 -27 -2 14 0 41 38 0 -1 7 -37 0 0 141 38 -1 0 1 -38 11 -7 0zm214 -37l1 1c-5,9 -14,17 -26,23 -12,7 -26,10 -42,10 -23,0 -42,-7 -57,-21 -16,-13 -23,-31 -23,-55 0,-25 8,-45 26,-60 17,-15 38,-22 62,-22 23,0 40,7 51,22 7,11 9,21 5,31 -4,10 -11,14 -23,14l-90 0c0,22 6,41 17,55 12,15 27,22 46,22 9,0 19,-2 30,-5 11,-4 18,-9 23,-15zm-71 -119c-13,0 -24,5 -32,15 -8,10 -13,24 -13,42l78 -1c6,0 9,-4 9,-13 0,-11 -4,-21 -12,-30 -8,-9 -18,-13 -30,-13zm256 125c0,8 1,14 3,18 1,4 5,7 9,10l0 2 -49 -10c0,0 0,-1 0,-1 -11,6 -23,9 -38,9 -23,0 -41,-7 -55,-20 -14,-13 -21,-31 -21,-53 0,-25 8,-45 25,-61 17,-16 42,-24 73,-24 8,0 16,0 24,2l0 -56c0,-6 -2,-9 -6,-9 -3,-1 -10,1 -20,4l0 -2 57 -27 -2 13 0 205zm-121 -62c0,22 7,42 19,57 12,16 27,24 46,24 10,0 19,-4 26,-11 0,-4 1,-9 1,-13l0 -102c-11,-12 -24,-17 -40,-17 -16,0 -29,5 -38,16 -9,12 -14,27 -14,46z" class="fil0"/></g></g></svg>